<?xml version="1.0" standalone="no"?>
<!DOCTYPE svg PUBLIC "-//W3C//DTD SVG 20010904//EN"
 "http://www.w3.org/TR/2001/REC-SVG-20010904/DTD/svg10.dtd">
<svg version="1.0" xmlns="http://www.w3.org/2000/svg"
 width="512.000000pt" height="512.000000pt" viewBox="0 0 512.000000 512.000000"
 preserveAspectRatio="xMidYMid meet">
<metadata>
Created by potrace 1.14, written by Peter Selinger 2001-2017
</metadata>
<g transform="translate(0.000000,512.000000) scale(0.100000,-0.100000)"
fill="#000000" stroke="none">
<path d="M150 5099 c-25 -11 -62 -39 -82 -61 -74 -82 -68 129 -68 -2472 0
-1371 4 -2357 10 -2380 13 -56 58 -116 115 -151 l48 -30 2366 -3 c2615 -3
2418 -7 2494 61 20 18 46 50 59 72 l23 40 3 2365 c3 2614 7 2417 -61 2493 -18
20 -50 46 -72 59 l-40 23 -2375 2 c-2354 2 -2375 1 -2420 -18z"/>
</g>
</svg>
