<?xml version="1.0" standalone="no"?>
<!DOCTYPE svg PUBLIC "-//W3C//DTD SVG 20010904//EN"
 "http://www.w3.org/TR/2001/REC-SVG-20010904/DTD/svg10.dtd">
<svg version="1.0" xmlns="http://www.w3.org/2000/svg"
 width="512.000000pt" height="512.000000pt" viewBox="0 0 512.000000 512.000000"
 preserveAspectRatio="xMidYMid meet">
<metadata>
Created by potrace 1.14, written by Peter Selinger 2001-2017
</metadata>
<g transform="translate(0.000000,512.000000) scale(0.100000,-0.100000)"
fill="#000000" stroke="none">
<path d="M2158 5115 c-2 -2 -57 -6 -123 -10 -136 -7 -195 -11 -263 -19 -26 -4
-66 -8 -89 -11 -100 -12 -123 -15 -228 -36 -123 -23 -122 -23 -186 -38 -64
-15 -208 -59 -246 -77 -17 -8 -36 -14 -42 -14 -21 0 -195 -92 -281 -149 -98
-65 -255 -217 -322 -311 -102 -145 -218 -408 -252 -570 -3 -14 -14 -63 -25
-110 -19 -79 -46 -240 -57 -335 -33 -301 -39 -427 -39 -875 0 -340 6 -556 20
-685 2 -22 6 -67 10 -100 3 -33 7 -75 10 -93 14 -110 26 -192 30 -213 3 -13 8
-37 11 -54 12 -68 65 -266 94 -350 43 -124 140 -316 202 -400 64 -86 194 -217
270 -273 78 -57 239 -145 323 -177 39 -15 79 -31 90 -35 52 -22 279 -82 355
-94 19 -3 46 -8 60 -11 14 -3 35 -7 47 -9 45 -9 141 -21 258 -32 39 -3 81 -8
95 -10 166 -26 1117 -25 1375 1 22 2 65 7 95 10 106 10 186 21 230 30 13 2 42
7 65 10 86 13 265 58 380 96 501 166 797 480 950 1005 28 96 62 242 71 302 2
20 9 60 14 87 5 28 11 75 14 105 3 30 8 82 12 115 3 33 7 76 9 95 27 233 27
1136 1 1365 -3 22 -7 65 -10 95 -3 30 -10 89 -16 130 -5 41 -13 93 -16 115 -7
52 -32 179 -46 230 -5 22 -12 49 -14 60 -2 11 -14 56 -28 100 -140 464 -408
766 -831 935 -122 49 -348 111 -495 135 -19 3 -57 10 -85 15 -27 5 -84 12
-125 16 -41 3 -77 7 -80 9 -3 2 -55 6 -115 10 -61 4 -128 10 -150 12 -47 5
-922 12 -927 8z"/>
</g>
</svg>
